<?xml version="1.0" encoding="utf-8"?>
<!-- Generator: Adobe Illustrator 26.0.0, SVG Export Plug-In . SVG Version: 6.00 Build 0)  -->
<svg version="1.1" id="图层_1" xmlns="http://www.w3.org/2000/svg" xmlns:xlink="http://www.w3.org/1999/xlink" x="0px" y="0px"
	 viewBox="0 0 1000 1000" style="enable-background:new 0 0 1000 1000;" xml:space="preserve">
<style type="text/css">
	.st0{fill:#005DBA;}
	.st1{fill:#FFFFFF;}
	.st2{enable-background:new    ;}
	.st3{fill:#48A5DD;}
	.st4{font-family:'MicrosoftYaHei';}
	.st5{font-size:110px;}
</style>
<path class="st0" d="M787.7,424.9l-119.7-68l-119.7,68L668,485.3L787.7,424.9L787.7,424.9z M797,456.6l-112.9,57V641L797,576.8
	V456.6L797,456.6z M651.8,641V513.6l-112.9-57v120.2L651.8,641L651.8,641z M432.7,424.9l-119.7-68l-119.7,68L313,485.3L432.7,424.9
	L432.7,424.9z M442.1,456.6l-112.9,57V641l112.9-64.1V456.6L442.1,456.6z M296.9,641V513.6l-112.9-57v120.2L296.9,641L296.9,641z
	 M610.2,115.4l-119.7-68l-119.7,68l119.7,60.4L610.2,115.4L610.2,115.4z M619.6,147.1l-112.9,57v127.4l112.9-64.1V147.1L619.6,147.1
	z M474.4,331.5V204.1l-112.9-57v120.2L474.4,331.5z M506.3,19.1l129.1,73.3c10.2,5.8,16.5,16.6,16.5,28.4v146.6
	c0,11.8-6.3,22.6-16.5,28.4L506.3,369c-9.8,5.6-21.8,5.6-31.6,0l-129.1-73.3c-10.2-5.8-16.5-16.6-16.5-28.4V120.7
	c0-11.8,6.3-22.6,16.5-28.4L474.7,19C484.5,13.5,496.5,13.5,506.3,19.1L506.3,19.1z M328.8,328.5l129.1,73.3
	c10.2,5.8,16.5,16.6,16.5,28.4v146.6c0,11.8-6.3,22.6-16.5,28.4l-129.1,73.3c-9.8,5.6-21.8,5.6-31.6,0l-129.1-73.3
	c-10.2-5.8-16.5-16.6-16.5-28.4V430.2c0-11.8,6.3-22.6,16.5-28.4l129.1-73.3C307,323,319,323,328.8,328.5L328.8,328.5z M683.8,328.5
	l129.1,73.3c10.2,5.8,16.5,16.6,16.5,28.4v146.6c0,11.8-6.3,22.6-16.5,28.4l-129.1,73.3c-9.8,5.6-21.8,5.6-31.6,0l-129.1-73.3
	c-10.2-5.8-16.5-16.6-16.5-28.4V430.2c0-11.8,6.3-22.6,16.5-28.4l129.1-73.3C662,323,674,323,683.8,328.5L683.8,328.5z"/>
<path class="st1" d="M787.7,424.9L668,485.3l-119.7-60.4l119.7-68L787.7,424.9z M797,456.6v120.2L684.1,641V513.6L797,456.6
	L797,456.6z M651.8,641l-112.9-64.1V456.6l112.9,57V641L651.8,641z M432.7,424.9L313,485.3l-119.7-60.4l119.7-68L432.7,424.9
	L432.7,424.9z M442.1,456.6v120.2L329.2,641V513.6L442.1,456.6L442.1,456.6z M296.9,641L184,576.8V456.6l112.9,57V641L296.9,641z
	 M610.2,115.4l-119.7,60.4l-119.7-60.4l119.7-68L610.2,115.4L610.2,115.4z M619.6,147.1v120.2l-112.9,64.1V204.1L619.6,147.1z
	 M474.4,331.5l-112.9-64.1V147.1l112.9,57V331.5z"/>
<text transform="matrix(0.9693 0 0 1 186.8308 808)" class="st2"><tspan x="0" y="0" class="st3 st4 st5">微服务划分及</tspan><tspan x="-165" y="132" class="st3 st4 st5">接口调用可视化工具</tspan></text>
</svg>
