<?xml version="1.0" encoding="utf-8"?>
<!-- Generator: Adobe Illustrator 26.0.0, SVG Export Plug-In . SVG Version: 6.00 Build 0)  -->
<svg version="1.1" id="图层_1" xmlns="http://www.w3.org/2000/svg" xmlns:xlink="http://www.w3.org/1999/xlink" x="0px" y="0px"
	 viewBox="0 0 1024 1024" style="enable-background:new 0 0 1024 1024;" xml:space="preserve">
<style type="text/css">
	.st0{fill:#DFDFDE;}
	.st1{fill:#4B555F;}
	.st2{fill:#FFFFFF;}
	.st3{fill:#F58E70;}
	.st4{fill:#FFD351;}
	.st5{fill:#48A5DD;}
	.st6{font-family:'FZHTK--GBK1-0';}
	.st7{font-size:120.9874px;}
</style>
<path class="st0" d="M933,37.4c-6.8-6.6-16.1-10.2-25.8-10.2H120.5c-23.1,0-41.8,17.9-41.8,39.9v591.2c0,22.1,18.7,39.9,41.8,39.9
	h781.4c23.1,0,41.8-17.9,41.8-39.9V62C943.8,52.8,939.9,43.9,933,37.4z M919.7,605.2H290.6l-39.2,37.4l-23.6,22.6
	c-7.2,6.9-18.9,6.9-26,0c0,0,0,0,0,0l-31.4-30c-7.2-6.9-7.2-18.1,0-24.9l5.3-5.1h-68.5V62h812.5V605.2z"/>
<path class="st1" d="M901.9,725.4H120.5c-38.7,0-70.3-30.1-70.3-67.1V67.1c0-37,31.5-67.1,70.3-67.1h781.8
	c38.5,0,69.9,29.9,69.9,66.7v591.5C972.2,695.3,940.7,725.4,901.9,725.4z M120.5,12.9c-31.3,0-56.8,24.3-56.8,54.2v591.2
	c0,29.9,25.5,54.2,56.8,54.2h781.4c31.3,0,56.8-24.3,56.8-54.2V66.7c0-29.7-25.3-53.8-56.4-53.8L120.5,12.9L120.5,12.9z"/>
<path class="st1" d="M214.8,676.8c-6.7,0-13.1-2.5-17.8-7l-31.4-30c-9.8-9.4-9.8-24.7,0-34.1L181,591h-58.9V76.3h782.7V591H315
	l-82.5,78.8C227.9,674.3,221.4,676.8,214.8,676.8L214.8,676.8z M135.6,578.1h78.1l-38.5,36.8c-4.6,4.4-4.6,11.4,0,15.8l31.4,30
	c4.4,4.2,12.1,4.2,16.5,0l86.4-82.5h581.8V89.2H135.6V578.1z M660.5,829.4H370.6l51-116.9h187.8L660.5,829.4L660.5,829.4z
	 M390.9,816.5h249.4l-39.8-91.1H430.7L390.9,816.5z"/>
<path class="st0" d="M413.3,802.2l27.3-62.6h149.9l27.3,62.6H413.3z"/>
<path class="st1" d="M777.8,883.5H253.3v-67.1h524.5V883.5z M266.8,870.6h497.5v-41.3H266.8V870.6z"/>
<path class="st0" d="M281.7,843.6h467.6v12.7H281.7V843.6z"/>
<path class="st1" d="M80.9,870.6h869.3v12.9H80.9V870.6z"/>
<path class="st2" d="M482,652.5c0,18.1,15.3,32.7,34.2,32.7c18.9,0,34.2-14.6,34.2-32.7c0,0,0,0,0,0c0-18.1-15.3-32.7-34.2-32.7
	C497.3,619.8,482,634.5,482,652.5C482,652.5,482,652.5,482,652.5z"/>
<path class="st1" d="M516.2,691.7c-22.6,0-41-17.6-41-39.1s18.4-39.1,41-39.1c22.6,0,41,17.6,41,39.1
	C557.2,674.1,538.8,691.7,516.2,691.7z M516.2,626.3c-15.2,0-27.5,11.8-27.5,26.2c0,14.5,12.3,26.2,27.5,26.2
	c15.2,0,27.5-11.8,27.5-26.2C543.7,638.1,531.4,626.3,516.2,626.3z"/>
<path class="st3" d="M635.7,356.6l-86.9,76L440.1,329.2l-50,42.4c-4.6-15.9-5.7-32.6-3.3-48.9l54.9-46.6l108.2,103l82.3-72
	C637,323.2,638.1,340,635.7,356.6z"/>
<path class="st1" d="M711.3,273.2l-9.2-9.4l9.9-8.8l9.2,9.4L711.3,273.2z M731,255.6l-9.2-9.4l9.9-8.8l9.2,9.4L731,255.6z
	 M750.7,237.9l-9.2-9.4l9.9-8.8l9.2,9.4L750.7,237.9z M770.5,220.3l-9.2-9.4l9.9-8.8l9.2,9.4L770.5,220.3z M224.1,495l-9-9.6
	l10.1-8.6l9,9.6L224.1,495z M244.3,477.9l-9-9.6l10.1-8.6l9,9.6L244.3,477.9z M264.5,460.8l-9-9.6l10.1-8.6l9,9.6L264.5,460.8z
	 M284.7,443.7l-9-9.6l10.1-8.6l9,9.6L284.7,443.7z M304.9,426.5l-9-9.6l10.1-8.6l9,9.6L304.9,426.5z"/>
<path class="st1" d="M806.4,233.3h-13.5v-41.6h-45.5v-12.9h59V233.3z M511.2,466.1c-35.4,0-68.6-13.1-93.6-37
	c-51.6-49.3-51.6-129.6,0-178.9c25-23.9,58.3-37.1,93.6-37.1s68.6,13.2,93.6,37.1c25,23.9,38.8,55.6,38.8,89.4s-13.8,65.5-38.8,89.4
	C579.9,452.9,546.6,466.1,511.2,466.1z M511.2,226c-31.8,0-61.6,11.8-84.1,33.3c-46.3,44.3-46.3,116.3,0,160.6
	c22.5,21.4,52.3,33.3,84.1,33.3s61.6-11.8,84.1-33.3c22.5-21.5,34.8-50,34.8-80.3c0-30.3-12.4-58.9-34.8-80.3
	C572.8,237.8,543,226,511.2,226L511.2,226z M318.5,352.3c-0.6-8.5-0.6-17,0-25.4l13.5,0.4v24.6L318.5,352.3z M244.3,658.6v-30.9
	l16.9,14.8L244.3,658.6z"/>
<path class="st1" d="M244.3,658.6v-32.9l16.5,17.2L244.3,658.6z"/>
<path class="st4" d="M251.4,642.7L251,643v-0.7L251.4,642.7z"/>
<path class="st1" d="M244.3,657.7v-30l13.9,12.1v5.7L244.3,657.7z"/>
<path class="st1" d="M244.3,657.7v-30.9l16.9,16.2L244.3,657.7z"/>
<path class="st4" d="M251.4,642.7L251,643v-0.7L251.4,642.7z"/>
<path class="st1" d="M511.2,524.1c-51.6,0-100.1-19.2-136.6-54c-36.5-34.8-56.6-81.2-56.6-130.5s20.1-95.6,56.6-130.5
	c36.5-34.8,85-54,136.6-54c51.6,0,100.1,19.2,136.6,54c75.3,72,75.3,189,0,261C611.4,504.9,562.8,524.1,511.2,524.1z M511.2,168
	c-48,0-93.1,17.9-127,50.3c-34,32.4-52.6,75.5-52.6,121.4c0,45.8,18.7,88.9,52.6,121.3c33.9,32.4,79.1,50.3,127,50.3
	c48,0,93.1-17.8,127.1-50.3c70-66.9,70-175.8,0-242.7C604.4,185.8,559.2,168,511.2,168L511.2,168z"/>
<path class="st4" d="M511.2,496.2c-43.8,0-85-16.3-115.9-45.9c-31-29.6-48-68.9-48-110.7s17.1-81.1,48-110.7
	c31-29.6,72.1-45.9,115.9-45.9c43.8,0,85,16.3,115.9,45.9c63.9,61.1,63.9,160.4,0,221.4C596.2,479.9,555,496.2,511.2,496.2
	L511.2,496.2L511.2,496.2z M511.2,198.1c-39.6,0-76.8,14.7-104.8,41.5c-28,26.7-43.4,62.3-43.4,100.1c0,37.8,15.4,73.3,43.4,100.1
	c28,26.7,65.2,41.4,104.8,41.4S588,466.4,616,439.7c28-26.7,43.4-62.3,43.4-100.1c0-37.8-15.4-73.3-43.4-100.1
	C588,212.8,550.8,198.1,511.2,198.1L511.2,198.1z"/>
<path class="st1" d="M251.4,651.8l-67-64L317.1,461c9-8.6,20.9-13.3,33.5-13.3c12.7,0,24.6,4.7,33.5,13.3c18.5,17.6,18.5,46.4,0,64
	L251.4,651.8z M203.5,587.8l47.9,45.8l123.2-117.7c13.2-12.6,13.2-33.2,0-45.8c-6.3-6.1-15-9.5-24-9.5c-9,0-17.6,3.4-24,9.5
	L203.5,587.8z"/>
<path class="st3" d="M225.8,587.8l112.1-107c3.4-3.3,8-5.1,12.8-5.1c4.8,0,9.4,1.8,12.8,5.1c7.1,6.8,7.1,17.7,0,24.5l-112.1,107
	L225.8,587.8z"/>
<path class="st4" d="M219.6,642.7l-4.8,4.6l-25.6-24.5l4.8-4.6L219.6,642.7z"/>
<path class="st1" d="M244.3,658.6v-31.9l16.7,15.9L244.3,658.6z"/>
<path class="st4" d="M251.4,642.7L251,643v-0.7L251.4,642.7z"/>
<path class="st1" d="M318.5,352.3c-0.6-8.5-0.6-17,0-25.4l13.5,0.4v24.6L318.5,352.3z M244.3,658.6v-30.9l16.9,14.8L244.3,658.6z"/>
<path class="st1" d="M244.3,658.6v-32.9l16.5,17.2L244.3,658.6z"/>
<path class="st4" d="M251.4,642.7L251,643v-0.7L251.4,642.7z"/>
<path class="st1" d="M244.3,657.7v-30l13.9,12.1v5.7L244.3,657.7z"/>
<path class="st1" d="M244.3,657.7v-30.9l16.9,16.2L244.3,657.7z"/>
<path class="st4" d="M251.4,642.7L251,643v-0.7L251.4,642.7z"/>
<path class="st1" d="M244.3,658.6v-31.9l16.7,15.9L244.3,658.6z"/>
<path class="st4" d="M251.4,642.7L251,643v-0.7L251.4,642.7z"/>
<text transform="matrix(0.9404 0 0 1 0 996.5889)" class="st5 st6 st7">代码质量检查工具集</text>
</svg>
