<?xml version="1.0" encoding="utf-8"?>
<!-- Generator: Adobe Illustrator 26.0.0, SVG Export Plug-In . SVG Version: 6.00 Build 0)  -->
<svg version="1.1" id="图层_1" xmlns="http://www.w3.org/2000/svg" xmlns:xlink="http://www.w3.org/1999/xlink" x="0px" y="0px"
	 viewBox="0 0 1000 1000" style="enable-background:new 0 0 1000 1000;" xml:space="preserve">
<style type="text/css">
	.st0{fill:#F0C48A;}
	.st1{fill:#A4CFF2;}
	.st2{fill:#7BABF1;}
	.st3{fill:#4C4372;}
	.st4{fill:#D3E6F8;}
	.st5{fill:#FD919E;}
	.st6{fill:#E8677D;}
	.st7{fill:#48A5DD;}
	.st8{font-family:'MicrosoftYaHei';}
	.st9{font-size:147px;}
</style>
<path class="st0" d="M157.4,406.8c0,175.5,159.5,317.8,356.3,317.8S870,582.3,870,406.8S710.4,89,513.7,89S157.4,231.3,157.4,406.8z
	"/>
<path class="st1" d="M548.2,280.6L273.9,525.2c-51.5-12.3-108.6,0-148.4,36.8c-57.7,53.6-56.5,137.4,2.8,189.6s154.6,52,213.6-0.5
	c39.6-35.3,52.7-85.4,39.2-130.5l372.5-332.2c50.4,12,106.5,0.5,146.3-35c39.1-34.9,52.3-83.8,39.8-128.4l-81.2,72.5
	c-30.5,27.2-79.7,27.2-110.2,0s-30.5-71.1,0-98.3l81.2-72.5c-49.9-11.1-104.8,0.8-143.9,35.5c-39.6,35.3-52.7,85.4-39.2,130.5
	L614.7,221L548.2,280.6z M255.1,751.8l-101-24.1l-27-90l73.8-65.9L301.8,596l27,90L255.1,751.8L255.1,751.8z"/>
<path class="st2" d="M726.4,312.7l27.2-24.3c50.4,12,106.5,0.5,146.3-35c39.1-34.9,52.3-83.8,39.8-128.4l-2.8,2.5
	C889.5,261,791.3,265.7,743.1,259c-18.9-2.6-38,2.8-51.6,14.9l-327,291.7c-12.6,11.2-18.9,26.7-17.2,42.4
	c1.9,16.6-0.5,41.8-20.1,71.4l1.9,6.4l-73.8,65.9l-9.8-2.3c-62.5,27.5-115.5,2.5-118.1,1.2l1.2,1.1c59.2,52.2,154.6,52,213.6-0.5
	c39.6-35.3,52.7-85.4,39.2-130.5l20.3-18.1L726.4,312.7z"/>
<path class="st3" d="M234.8,799.7c-41.1,0-82.3-13.8-113.6-41.5c-30.5-27-47.7-62.8-48.2-100.7s15.5-74,45.3-101.6
	c39.4-36.5,97.4-51.9,152.5-40.7L635.3,190c-12.2-48.1,4-99,43.2-134C718.4,20.5,777.1,6.1,832,18.2c3.4,0.8,6.4,3.2,7.2,6.3
	c1,3.1,0,6.4-2.6,8.8l-81.2,72.6c-12.7,11.4-19.8,26.6-19.8,42.7s7.1,31.3,19.8,42.7s29.8,17.7,47.8,17.7s35.1-6.3,47.8-17.7
	l81.2-72.5c2.6-2.3,6.4-3.2,9.8-2.3c3.4,0.9,6.2,3.4,7.1,6.4c13.6,48.8-2.6,101.3-42.5,136.8c-39.2,35-96.4,49.4-150.3,38.5
	L392.1,623.4c12.2,48.1-4,99-43.2,134C317.6,785.6,276.1,799.7,234.8,799.7L234.8,799.7z M234.8,529.6c-38,0-75,13.7-102.1,38.7
	c-26,24.1-40.1,55.7-39.6,88.9s15.5,64.5,42.2,88c55.1,48.7,144.6,48.4,199.3-0.5c35.5-31.6,49.6-78.3,36.5-121.7
	c-0.9-3.1,0-6.4,2.6-8.8L746.2,282c2.6-2.3,6.2-3.2,9.8-2.3c48.7,11.5,101-0.9,136.5-32.5c31-27.6,45.4-65.4,40.4-103.5L865.3,204
	c-16.5,14.7-38.7,23-62.1,23c-23.4,0-45.6-8.1-62.1-23c-16.5-14.7-25.8-34.5-25.8-55.4s9.1-40.7,25.8-55.4l67.6-60.3
	c-42.7-4.5-85,8.4-116,36.1c-35.5,31.6-49.6,78.3-36.5,121.7c0.9,3.1,0,6.4-2.6,8.8l-98.3,87.7L281.1,531.6
	c-2.6,2.3-6.2,3.2-9.8,2.3C259.3,531,247,529.6,234.8,529.6L234.8,529.6z M255.1,760.8c-0.9,0-1.7-0.2-2.6-0.3l-100.9-24.1
	c-3.4-0.8-6.2-3.2-7.1-6.3l-27-90c-0.9-3.1,0-6.4,2.6-8.8l73.8-65.9c2.6-2.3,6.2-3.2,9.8-2.3l100.9,24.1c3.4,0.8,6.2,3.2,7.1,6.3
	l27,90c0.9,3.1,0,6.4-2.6,8.8l-73.8,65.9C260.3,759.8,257.7,760.8,255.1,760.8L255.1,760.8z M162.4,720.3l89.7,21.5l65.6-58.5
	l-24.1-80l-89.7-21.5l-65.6,58.5L162.4,720.3L162.4,720.3z"/>
<path class="st4" d="M434.5,384.5L608,539.3l60.4-53.9L410.9,255.7l-60.4,53.9l25.1,22.4L434.5,384.5z"/>
<path class="st1" d="M394.4,270.3l15.9-14.2L646,466.2l-16,14.3L394.4,270.3z M313.5,86.7l-0.7,0.6L155.1,227.9l143.4,127.9
	l158.3-141.2l-29.9-26.7c-36.3-32.4-36.3-84.9,0-117.3l-47.7-42.4L313.5,86.7z"/>
<path class="st2" d="M426.9,70.7l-47-41.9L346,59.1L360.5,72c6.4,5.7,8.3,14.1,5.2,21.6c-16.2,38.4-5,74.6,6.2,96.9
	c6,12.3,14.8,23.3,25.3,32.7l24.4,21.8l34.6-30.9l-22.9-20.4l-6.4-5.7C390.8,155.6,390.8,103.1,426.9,70.7L426.9,70.7z"/>
<path class="st1" d="M83.1,292.2l46.5-41.5L273,378.6l-46.5,41.5L83.1,292.2z"/>
<path class="st2" d="M153.5,272.2l25.6-22.8l96.9,86.4l-25.6,22.8L153.5,272.2z"/>
<path class="st3" d="M608,548.4c-2.8,0-5.2-0.9-7.1-2.6L343.4,315.9c-1.9-1.7-2.9-4-2.9-6.3c0-2.5,1-4.6,2.9-6.3l60.4-53.9
	c1.9-1.7,4.5-2.6,7.1-2.6c2.8,0,5.2,0.9,7.1,2.6l257.5,229.7c4,3.5,4,9.2,0,12.7l-60.2,53.9C613.3,547.4,610.7,548.4,608,548.4
	L608,548.4z M364.8,309.6l7.1,6.3L608,526.6l46.1-41.1l-243.2-217L364.8,309.6L364.8,309.6z M226.6,429.1c-2.6,0-5.2-0.9-7.1-2.6
	L76,298.6c-4-3.5-4-9.2,0-12.7l46.5-41.5c4-3.5,10.3-3.5,14.3,0l143.4,127.9c4,3.5,4,9.2,0,12.7l-46.5,41.5
	C231.7,428.3,229.1,429.1,226.6,429.1L226.6,429.1z M97.5,292.3l129.1,115.1l32.2-28.7L129.7,263.6L97.5,292.3z"/>
<path class="st3" d="M298.5,364.9c-2.6,0-5.2-0.9-7.1-2.6L148.1,234.4c-4-3.5-4-9.2,0-12.7L372,21.8c1.9-1.7,4.5-2.6,7.1-2.6
	c2.8,0,5.2,0.9,7.1,2.6l48,42.7c4,3.5,4,9.2,0,12.7c-32.4,28.9-32.4,75.7,0,104.6l29.9,26.7c1.9,1.7,2.9,4,2.9,6.3s-1,4.6-2.9,6.3
	L305.7,362.3C303.7,364,301.1,364.9,298.5,364.9z M169.4,227.9L298.5,343l144.1-128.5l-22.7-20.3c-37.7-33.6-40.1-87.2-6.7-123.3
	l-33.9-30.2L320.7,93L169.4,227.9L169.4,227.9z"/>
<path class="st3" d="M250.5,367.5c-2.6,0-5.2-0.9-7.1-2.6l-96.9-86.4c-1.9-1.7-2.9-4-2.9-6.3c0-2.5,1-4.6,2.9-6.3l25.5-22.7
	c4-3.5,10.3-3.5,14.3,0l96.9,86.4c1.9,1.7,2.9,4,2.9,6.3c0,2.5-1,4.6-2.9,6.3l-25.5,22.7C255.7,366.7,253.1,367.5,250.5,367.5z
	 M167.7,272.2l82.6,73.7l11.4-10.1L179.1,262L167.7,272.2z"/>
<path class="st5" d="M929.6,749.8L904,772.7c-19.3,17.2-50.6,17.2-69.9,0L604,567.4c-19.3-17.2-19.3-45.1,0-62.3l25.6-22.9
	c19.3-17.2,50.6-17.2,69.9,0l230.1,205.3C948.9,704.5,948.9,732.6,929.6,749.8L929.6,749.8z"/>
<path class="st6" d="M929.6,687.5L699.5,482c-19.3-17.2-50.6-17.2-69.9,0l-0.2,0.2l300,267.6l0.2-0.2
	C948.9,732.6,948.9,704.5,929.6,687.5L929.6,687.5z"/>
<path class="st3" d="M869.1,794.5c-16,0-30.8-5.5-42-15.5L596.8,573.7c-23.2-20.7-23.2-54.3,0-75.1l25.6-22.9
	c11.2-10,26.2-15.5,42-15.5c16,0,30.8,5.5,42,15.5L936.5,681c23.2,20.7,23.2,54.3,0,75.1l-25.3,23
	C899.9,789.1,885.1,794.5,869.1,794.5L869.1,794.5z M664.6,478.2c-10.5,0-20.5,3.7-27.9,10.3l-25.6,22.9
	c-15.3,13.7-15.3,35.9,0,49.6l230.1,205.3c7.4,6.6,17.2,10.3,27.9,10.3c10.5,0,20.5-3.7,27.9-10.3l25.6-22.9
	c15.3-13.7,15.3-35.9,0-49.6L692.5,488.5C685.1,481.9,675.1,478.2,664.6,478.2z"/>
<text transform="matrix(0.9786 0 0 1 93.0873 957.792)" class="st7 st8 st9">代码纠错工具</text>
</svg>
