<?xml version="1.0" encoding="utf-8"?>
<!-- Generator: Adobe Illustrator 25.4.1, SVG Export Plug-In . SVG Version: 6.00 Build 0)  -->
<svg version="1.1" xmlns="http://www.w3.org/2000/svg" xmlns:xlink="http://www.w3.org/1999/xlink" x="0px" y="0px"
	 viewBox="0 0 1024 1024" style="enable-background:new 0 0 1024 1024;" xml:space="preserve">
<style type="text/css">
	.st0{fill:#DFDFDE;}
	.st1{fill:#4B555F;}
	.st2{fill:#FFFFFF;}
	.st3{fill:#FFD351;}
	.st4{fill:#F58E70;}
	.st5{fill:#48A5DD;}
	.st6{font-family:'MicrosoftYaHei';}
	.st7{font-size:105px;}
	.st8{fill:#FFCD36;}
</style>
<g id="图层_1">
	<path class="st0" d="M933,37.4c-6.8-6.6-16.1-10.2-25.8-10.2H120.5c-23.1,0-41.8,17.9-41.8,39.9v591.2c0,22.1,18.7,39.9,41.8,39.9
		h781.4c23.1,0,41.8-17.9,41.8-39.9V62C943.8,52.8,939.9,43.9,933,37.4z M919.7,605.2H290.6l-39.2,37.4l-23.6,22.6
		c-7.2,6.9-18.9,6.9-26,0l0,0l-31.4-30c-7.2-6.9-7.2-18.1,0-24.9l5.3-5.1h-68.5V62h812.5V605.2z"/>
	<path class="st1" d="M901.9,725.4H120.5c-38.7,0-70.3-30.1-70.3-67.1V67.1c0-37,31.5-67.1,70.3-67.1h781.8
		c38.5,0,69.9,29.9,69.9,66.7v591.5C972.2,695.3,940.7,725.4,901.9,725.4z M120.5,12.9c-31.3,0-56.8,24.3-56.8,54.2v591.2
		c0,29.9,25.5,54.2,56.8,54.2h781.4c31.3,0,56.8-24.3,56.8-54.2V66.7c0-29.7-25.3-53.8-56.4-53.8L120.5,12.9L120.5,12.9z"/>
	<path class="st1" d="M214.8,676.8c-6.7,0-13.1-2.5-17.8-7l-31.4-30c-9.8-9.4-9.8-24.7,0-34.1L181,591h-58.9V76.3h782.7V591H315
		l-82.5,78.8C227.9,674.3,221.4,676.8,214.8,676.8L214.8,676.8z M135.6,578.1h78.1l-38.5,36.8c-4.6,4.4-4.6,11.4,0,15.8l31.4,30
		c4.4,4.2,12.1,4.2,16.5,0l86.4-82.5h581.8v-489H135.6V578.1z M660.5,829.4H370.6l51-116.9h187.8L660.5,829.4L660.5,829.4z
		 M390.9,816.5h249.4l-39.8-91.1H430.7L390.9,816.5z"/>
	<path class="st0" d="M413.3,802.2l27.3-62.6h149.9l27.3,62.6H413.3z"/>
	<path class="st1" d="M777.8,883.5H253.3v-67.1h524.5V883.5z M266.8,870.6h497.5v-41.3H266.8V870.6z"/>
	<path class="st0" d="M281.7,843.6h467.6v12.7H281.7V843.6z"/>
	<path class="st1" d="M80.9,870.6h869.3v12.9H80.9V870.6z"/>
	<path class="st2" d="M482,652.5c0,18.1,15.3,32.7,34.2,32.7s34.2-14.6,34.2-32.7l0,0c0-18.1-15.3-32.7-34.2-32.7
		S482,634.5,482,652.5L482,652.5z"/>
	<path class="st1" d="M516.2,691.7c-22.6,0-41-17.6-41-39.1s18.4-39.1,41-39.1c22.6,0,41,17.6,41,39.1
		C557.2,674.1,538.8,691.7,516.2,691.7z M516.2,626.3c-15.2,0-27.5,11.8-27.5,26.2c0,14.5,12.3,26.2,27.5,26.2s27.5-11.8,27.5-26.2
		S531.4,626.3,516.2,626.3z"/>
	<path class="st1" d="M711.3,273.2l-9.2-9.4l9.9-8.8l9.2,9.4L711.3,273.2z M731,255.6l-9.2-9.4l9.9-8.8l9.2,9.4L731,255.6z
		 M750.7,237.9l-9.2-9.4l9.9-8.8l9.2,9.4L750.7,237.9z M770.5,220.3l-9.2-9.4l9.9-8.8l9.2,9.4L770.5,220.3z M224.1,495l-9-9.6
		l10.1-8.6l9,9.6L224.1,495z M244.3,477.9l-9-9.6l10.1-8.6l9,9.6L244.3,477.9z M264.5,460.8l-9-9.6l10.1-8.6l9,9.6L264.5,460.8z
		 M284.7,443.7l-9-9.6l10.1-8.6l9,9.6L284.7,443.7z M304.9,426.5l-9-9.6l10.1-8.6l9,9.6L304.9,426.5z"/>
	<path class="st1" d="M806.4,233.3h-13.5v-41.6h-45.5v-12.9h59V233.3z M511.2,466.1c-35.4,0-68.6-13.1-93.6-37
		c-51.6-49.3-51.6-129.6,0-178.9c25-23.9,58.3-37.1,93.6-37.1s68.6,13.2,93.6,37.1s38.8,55.6,38.8,89.4s-13.8,65.5-38.8,89.4
		C579.9,452.9,546.6,466.1,511.2,466.1z M511.2,226c-31.8,0-61.6,11.8-84.1,33.3c-46.3,44.3-46.3,116.3,0,160.6
		c22.5,21.4,52.3,33.3,84.1,33.3s61.6-11.8,84.1-33.3s34.8-50,34.8-80.3c0-30.3-12.4-58.9-34.8-80.3C572.8,237.8,543,226,511.2,226
		L511.2,226z M318.5,352.3c-0.6-8.5-0.6-17,0-25.4l13.5,0.4v24.6L318.5,352.3z M244.3,658.6v-30.9l16.9,14.8L244.3,658.6z"/>
	<path class="st1" d="M244.3,658.6v-32.9l16.5,17.2L244.3,658.6z"/>
	<path class="st3" d="M251.4,642.7L251,643v-0.7L251.4,642.7z"/>
	<path class="st1" d="M244.3,657.7v-30l13.9,12.1v5.7L244.3,657.7z"/>
	<path class="st1" d="M244.3,657.7v-30.9l16.9,16.2L244.3,657.7z"/>
	<path class="st3" d="M251.4,642.7L251,643v-0.7L251.4,642.7z"/>
	<path class="st1" d="M511.2,524.1c-51.6,0-100.1-19.2-136.6-54S318,388.9,318,339.6s20.1-95.6,56.6-130.5c36.5-34.8,85-54,136.6-54
		s100.1,19.2,136.6,54c75.3,72,75.3,189,0,261C611.4,504.9,562.8,524.1,511.2,524.1z M511.2,168c-48,0-93.1,17.9-127,50.3
		c-34,32.4-52.6,75.5-52.6,121.4c0,45.8,18.7,88.9,52.6,121.3s79.1,50.3,127,50.3c48,0,93.1-17.8,127.1-50.3
		c70-66.9,70-175.8,0-242.7C604.4,185.8,559.2,168,511.2,168L511.2,168z"/>
	<path class="st3" d="M511.2,496.2c-43.8,0-85-16.3-115.9-45.9c-31-29.6-48-68.9-48-110.7s17.1-81.1,48-110.7
		c31-29.6,72.1-45.9,115.9-45.9s85,16.3,115.9,45.9c63.9,61.1,63.9,160.4,0,221.4C596.2,479.9,555,496.2,511.2,496.2L511.2,496.2
		L511.2,496.2z M511.2,198.1c-39.6,0-76.8,14.7-104.8,41.5c-28,26.7-43.4,62.3-43.4,100.1s15.4,73.3,43.4,100.1
		c28,26.7,65.2,41.4,104.8,41.4S588,466.4,616,439.7c28-26.7,43.4-62.3,43.4-100.1S644,266.3,616,239.5
		C588,212.8,550.8,198.1,511.2,198.1L511.2,198.1z"/>
	<path class="st1" d="M251.4,651.8l-67-64L317.1,461c9-8.6,20.9-13.3,33.5-13.3c12.7,0,24.6,4.7,33.5,13.3c18.5,17.6,18.5,46.4,0,64
		L251.4,651.8z M203.5,587.8l47.9,45.8l123.2-117.7c13.2-12.6,13.2-33.2,0-45.8c-6.3-6.1-15-9.5-24-9.5s-17.6,3.4-24,9.5
		L203.5,587.8z"/>
	<path class="st4" d="M225.8,587.8l112.1-107c3.4-3.3,8-5.1,12.8-5.1s9.4,1.8,12.8,5.1c7.1,6.8,7.1,17.7,0,24.5l-112.1,107
		L225.8,587.8z"/>
	<path class="st3" d="M219.6,642.7l-4.8,4.6l-25.6-24.5l4.8-4.6L219.6,642.7z"/>
	<path class="st1" d="M244.3,658.6v-31.9l16.7,15.9L244.3,658.6z"/>
	<path class="st3" d="M251.4,642.7L251,643v-0.7L251.4,642.7z"/>
	<path class="st1" d="M318.5,352.3c-0.6-8.5-0.6-17,0-25.4l13.5,0.4v24.6L318.5,352.3z M244.3,658.6v-30.9l16.9,14.8L244.3,658.6z"
		/>
	<path class="st1" d="M244.3,658.6v-32.9l16.5,17.2L244.3,658.6z"/>
	<path class="st3" d="M251.4,642.7L251,643v-0.7L251.4,642.7z"/>
	<path class="st1" d="M244.3,657.7v-30l13.9,12.1v5.7L244.3,657.7z"/>
	<path class="st1" d="M244.3,657.7v-30.9l16.9,16.2L244.3,657.7z"/>
	<path class="st3" d="M251.4,642.7L251,643v-0.7L251.4,642.7z"/>
	<path class="st1" d="M244.3,658.6v-31.9l16.7,15.9L244.3,658.6z"/>
	<path class="st3" d="M251.4,642.7L251,643v-0.7L251.4,642.7z"/>
	<text transform="matrix(0.9404 0 0 1 67.6606 996.5889)" class="st5 st6 st7">代码安全性检测工具</text>
</g>
<g id="图层_2">
	<path class="st2" d="M512,422c-1.5,0-3-0.5-4.2-1.3l-32.5-22.1c-10.3-7-18.7-16.2-24.5-26.6c-5.7-10.4-8.7-21.9-8.7-33.5v-37.9
		c0-5,3.6-9.5,9-11.2l0.1,0l16.6-6.2c8.1-3,15.8-7.1,22.7-12l17.5-12.3l0.1-0.1c1-0.8,2.4-1.3,3.8-1.3c1.4,0,2.8,0.5,3.8,1.3
		l0.1,0.1l17.5,12.3c7,4.9,14.6,8.9,22.7,12l16.6,6.2l0.1,0c5.4,1.7,9,6.2,9,11.2v37.9c0,11.6-3,23.2-8.7,33.5
		c-5.7,10.4-14.2,19.6-24.5,26.6l-32.5,22.1C515,421.5,513.5,422,512,422L512,422z"/>
	<path class="st1" d="M512,262.2c0.3,0,0.6,0.1,0.8,0.2l0.2,0.2l0.2,0.2l17.3,12.3c7.3,5.2,15.3,9.4,23.9,12.6l16.5,6.1l0.2,0.1
		l0.2,0.1c3.4,1.1,5.6,3.7,5.6,6.6v37.9c0,5.4-0.7,10.8-2.1,16.1c-1.4,5.2-3.4,10.3-6,15.1c-2.7,4.8-5.9,9.4-9.8,13.6
		c-3.9,4.2-8.3,8.1-13.2,11.4l-32.5,22.1c-0.4,0.3-0.9,0.4-1.5,0.4c-0.6,0-1.1-0.2-1.5-0.4L478,394.6c-4.9-3.3-9.3-7.2-13.2-11.4
		c-3.8-4.2-7.1-8.7-9.8-13.6c-2.6-4.8-4.7-9.9-6-15.1c-1.4-5.3-2.1-10.7-2.1-16.1v-37.9c0-2.9,2.3-5.5,5.6-6.6l0.2-0.1l0.2-0.1
		l16.5-6.1c8.5-3.2,16.6-7.4,23.9-12.6l17.3-12.3l0.2-0.2l0.2-0.2C511.4,262.3,511.7,262.2,512,262.2 M512,252.5
		c-2.4,0-4.9,0.8-6.9,2.3l-17.3,12.3c-6.6,4.7-13.9,8.5-21.6,11.4l-16.5,6.1c-7.4,2.3-12.4,8.7-12.4,15.9v37.9
		c0,25.2,13.1,49,35.3,64.1l32.5,22.1c2.1,1.4,4.5,2.1,7,2.1s4.9-0.7,7-2.1l32.5-22.1c22.2-15.2,35.3-38.9,35.3-64.1v-37.9
		c0-7.2-5-13.5-12.4-15.9l-16.5-6.1c-7.8-2.9-15-6.7-21.6-11.4l-17.3-12.3C516.9,253.3,514.4,252.5,512,252.5L512,252.5z"/>
	<path class="st8" d="M547.6,336.9v-18.6c0-3.5-2.4-6.6-5.9-7.8l-7.8-3c-3.7-1.4-7.2-3.3-10.3-5.6l-8.3-6c-1.9-1.5-4.7-1.5-6.5,0
		l-8.3,6c-3.1,2.3-6.6,4.2-10.3,5.6l-7.8,3c-3.5,1.1-5.9,4.3-5.9,7.8v18.6c0,12.4,6.2,24,16.8,31.4l15.5,10.8c2,1.4,4.7,1.4,6.6,0
		l15.5-10.8C541.4,360.9,547.6,349.3,547.6,336.9L547.6,336.9z"/>
</g>
</svg>
